<svg width="144" height="144" viewBox="0 0 144 144" fill="none" xmlns="http://www.w3.org/2000/svg">
<path d="M68.2851 141.039L73.1992 80.5701L99.1796 135.39C99.7382 136.558 101.137 137.07 102.312 136.512C103.484 135.949 103.992 134.551 103.43 133.379L77.4492 78.5506L127.359 113.039C128.43 113.781 129.894 113.512 130.633 112.441C131.367 111.379 131.102 109.91 130.035 109.172L80.121 74.6912L140.59 79.6014C141.887 79.699 143.023 78.7381 143.125 77.4412C143.234 76.1482 142.266 75.0193 140.973 74.91L80.5039 69.9998L135.328 44.0193C136.5 43.4607 137.004 42.0584 136.445 40.8904C135.891 39.7107 134.488 39.2107 133.312 39.7693L78.4882 65.7498L112.98 15.8396C113.719 14.7693 113.449 13.3006 112.383 12.5701C111.312 11.8279 109.848 12.0896 109.109 13.16L74.621 63.0701L79.5351 2.60136C79.6445 1.30839 78.6757 0.179483 77.3828 0.0701074C76.0859 -0.0314546 74.9531 0.929483 74.8476 2.21855L69.9335 62.6912L43.9531 7.87089C43.3984 6.69901 41.996 6.1912 40.8242 6.7498C39.8398 7.21855 39.3281 8.28105 39.5156 9.30058C39.5546 9.4998 39.6132 9.6912 39.7031 9.8787L65.6835 64.7107L15.7734 30.2185C14.707 29.4803 13.2382 29.7498 12.5039 30.8201C12.1328 31.3514 12.0156 31.9803 12.125 32.5701C12.2343 33.1717 12.5664 33.7185 13.1015 34.0896L63.0117 68.5779L2.53902 63.66C1.24995 63.5584 0.113236 64.5193 0.00776652 65.8201C-0.00785748 66.0311 0.00386052 66.2303 0.0390165 66.4295C0.226517 67.449 1.07808 68.2615 2.16011 68.3514L62.6289 73.2615L7.80464 99.2381C6.82027 99.7107 6.31245 100.769 6.49995 101.789C6.53511 101.988 6.59761 102.179 6.68745 102.371C7.24214 103.551 8.64839 104.051 9.82027 103.488L64.6445 77.5115L30.1523 127.422C29.7851 127.961 29.6679 128.59 29.7773 129.18C29.8867 129.769 30.2187 130.328 30.7539 130.691C31.8203 131.43 33.2851 131.172 34.0234 130.101L68.5156 80.1912L63.6015 140.66C63.582 140.871 63.5937 141.07 63.6328 141.269C63.8164 142.289 64.6679 143.101 65.7539 143.191C67.0468 143.289 68.1835 142.328 68.2851 141.039Z" fill="white"/>
</svg>
