<svg width="162" height="61" viewBox="0 0 162 61" fill="none" xmlns="http://www.w3.org/2000/svg">
<path d="M161.203 15.2326C161.367 23.2326 156.309 28.7326 151.871 33.2443C146.883 38.3146 142.027 41.9631 136.637 45.0529V41.7638C140.801 39.0724 145.637 35.7131 149.773 31.506C153.773 27.4435 158.906 21.9045 158.344 14.4631C158.066 10.7951 155.828 6.50602 151.109 7.10368C145.531 7.81461 142.387 13.6935 138.73 16.5959C138.215 16.0841 137.293 15.9826 136.637 15.6232C137.891 7.45524 133.828 2.12321 126.547 3.04508C118.359 4.07243 117.383 15.0646 120.641 22.5959C120.043 23.2756 119.023 23.5334 117.977 23.756C113.934 14.0529 116.23 1.47477 126.164 0.134926C133.719 -0.876793 139.137 3.89274 139.496 11.3654C143.039 8.96305 148.836 1.33414 155.867 4.97477C159.395 6.80289 161.102 10.6154 161.203 15.2326ZM19.7031 28.5724C19.7031 28.5724 17.6562 25.9435 13.2148 25.9435H0V48.8654H12.8047C12.8047 48.8654 17.4219 48.8029 19.5273 46.3537C19.5273 46.3537 21.9258 44.3654 21.9258 37.5256C21.9258 37.5256 22.293 31.174 19.7031 28.5724ZM15.9023 37.2951C15.9023 41.7951 14.3242 42.7248 14.3242 42.7248C12.7773 44.2756 9.58984 44.1857 9.58984 44.1857H5.96484V30.5646H10.1133C13.2734 30.5646 14.1484 31.7326 14.1484 31.7326C16.2539 33.8459 15.9023 37.2951 15.9023 37.2951ZM44.668 25.9435H28.7656C28.7656 25.9435 25.5508 26.006 25.5508 29.4552V45.5959C25.5508 45.5959 25.6094 48.8654 28.9414 48.8654H44.6094V44.3654H31.457V39.3341H44.3789V35.4748H31.5156V30.5138H44.668M71.6836 25.9435H65.4258L58.8789 44.1349L52.4453 25.9435H46.1328L54.4336 46.6427C54.4336 46.6427 55.5469 49.0451 58.8789 49.0451C58.8789 49.0451 61.8008 49.3341 63.1445 46.7638M76.418 48.8029H92.0859V44.3029H79.168V25.9435H73.0859V45.6545C73.0859 45.6545 73.2031 48.8029 76.418 48.8029ZM96.5312 42.0256V48.8029H102.434V42.0256L112.141 26.006H105.711L99.5117 36.8263L93.1406 25.9435H86.707" fill="#0C4C61"/>
<path d="M128.922 47.6349L118.57 32.0255V48.8654H113.547V28.8732C113.547 28.8732 113.719 25.6544 117.812 25.6544C117.812 25.6544 120.734 25.4825 122.316 27.9357L131.902 42.6154V25.9435H136.812V45.2443C136.812 45.2443 137.07 48.8654 132.84 49.045C132.84 49.045 129.973 49.213 128.922 47.6349ZM0.609375 5.77551H9.24609V7.19348H2.70312V11.545H8.75V12.9435H2.70312V18.8849H0.609375M21.9062 16.295C21.9062 17.2833 21.9297 18.1427 22 18.8849H20.1445L20.0273 17.3458H19.9805C19.4531 18.1036 18.2188 19.0958 16.1719 19.0958C14.3633 19.0958 12.1992 18.256 12.1992 14.9747V9.46301H14.293V14.6661C14.293 16.4552 14.9844 17.6739 16.8633 17.6739C18.2656 17.6739 19.2422 16.8732 19.6211 16.1036C19.7422 15.8654 19.8125 15.5529 19.8125 15.2247V9.46301H21.9062M26.332 12.0138C26.332 11.0255 26.3086 10.2443 26.2344 9.46301H28.0938L28.2109 11.0255H28.2578C28.832 10.1427 30.1641 9.27551 32.0664 9.27551C33.6602 9.27551 36.1367 10.0529 36.1367 13.2755V18.8849H34.043V13.4552C34.043 11.9357 33.3516 10.6739 31.375 10.6739C30.0195 10.6739 28.9492 11.4747 28.5703 12.4239C28.4727 12.6349 28.4258 12.9357 28.4258 13.2247V18.8849H26.332M50.4141 5.07239V16.4435C50.4141 17.2833 50.4609 18.2325 50.5078 18.8849H48.6523L48.5547 17.2443H48.4844C47.8672 18.295 46.4844 19.0958 44.6055 19.0958C41.8203 19.0958 39.6562 17.1661 39.6562 14.3146C39.6328 11.1739 42.0352 9.27551 44.8203 9.27551C46.6055 9.27551 47.7695 9.9552 48.293 10.6935H48.3438V5.07239M48.3438 13.295C48.3438 13.0841 48.3164 12.795 48.2461 12.5724C47.9375 11.506 46.7969 10.6154 45.2266 10.6154C43.0586 10.6154 41.7734 12.1739 41.7734 14.2325C41.7734 16.1349 42.9414 17.713 45.1797 17.713C46.582 17.713 47.8672 16.9357 48.2461 15.6739C48.3164 15.4357 48.3438 15.2052 48.3438 14.9357V13.295ZM62.9531 16.6232C62.9531 17.4435 63 18.2364 63.1211 18.8849H61.2383L61.0742 17.6935H61C60.3594 18.4357 59.1211 19.0958 57.4805 19.0958C55.1484 19.0958 53.957 17.756 53.957 16.3927C53.957 14.1154 56.4336 12.8732 60.8828 12.8849V12.6935C60.8828 11.9357 60.6211 10.5138 58.2656 10.5333C57.168 10.5333 56.0508 10.7833 55.2422 11.2364L54.7656 10.0841C55.7188 9.60364 57.1211 9.27551 58.5742 9.27551C62.0977 9.27551 62.9531 11.2364 62.9531 13.1036M60.9297 14.0763C58.6445 14.0333 56.0508 14.3654 56.0508 16.1935C56.0508 17.3263 56.957 17.8341 58.0039 17.8341C59.5273 17.8341 60.5 17.0529 60.832 16.256C60.9062 16.0646 60.9297 15.8654 60.9297 15.713V14.0763ZM75.4922 18.5529C74.9453 18.7638 73.7305 19.0958 72.1836 19.0958C68.7109 19.0958 66.4492 17.1739 66.4492 14.295C66.4492 11.3927 68.875 9.27551 72.6367 9.27551C73.875 9.27551 74.9688 9.52551 75.5391 9.77551L75.0625 11.0841C74.5625 10.8654 73.7773 10.6349 72.6367 10.6349C69.9961 10.6349 68.5664 12.2443 68.5664 14.1935C68.5664 16.3732 70.2812 17.713 72.5664 17.713C73.7539 17.713 74.5391 17.4825 75.1367 17.2638M81.2266 6.82239C81.2266 7.40442 80.7266 7.87317 79.8945 7.87317C79.1328 7.87317 78.6328 7.40442 78.6328 6.82239C78.6328 6.23254 79.1562 5.75598 79.9414 5.75598C80.7031 5.75598 81.2266 6.21301 81.2266 6.82239ZM78.8945 9.46301H80.9883V18.8849H78.8945V9.46301ZM95.8359 14.0958C95.8359 17.5724 92.8594 19.0958 90.1016 19.0958C87.0078 19.0958 84.582 17.2247 84.582 14.256C84.582 11.1232 87.1289 9.27551 90.293 9.27551C93.5977 9.27551 95.8359 11.2325 95.8359 14.0958ZM86.7227 14.1935C86.7227 16.256 88.1484 17.8146 90.1953 17.8146C92.1953 17.8146 93.6953 16.2755 93.6953 14.1544C93.6953 12.5646 92.7188 10.5529 90.2461 10.5529C87.793 10.5529 86.7227 12.4239 86.7227 14.1935ZM93.3359 5.40442L90.4336 8.18567H88.9609L91.0312 5.40442H93.3359ZM99.4297 12.0138C99.4297 11.0255 99.4062 10.2443 99.3359 9.46301H101.191L101.309 11.0255H101.359C101.93 10.1427 103.262 9.27551 105.168 9.27551C106.758 9.27551 109.234 10.0529 109.234 13.2755V18.8849H107.141V13.4552C107.141 11.9357 106.449 10.6739 104.473 10.6739C103.117 10.6739 102.047 11.4747 101.668 12.4239C101.57 12.6349 101.523 12.9357 101.523 13.2247V18.8849H99.4297M1 54.545H1.91406V58.3654H3.52734V59.256H1M6.75391 58.4357C6.75391 58.756 6.76563 59.0646 6.80078 59.256H5.97656L5.92188 58.9122H5.90625C5.71094 59.1857 5.41016 59.3341 5.0625 59.3341C4.46484 59.3341 4.11328 58.8341 4.11328 58.2833C4.11328 57.3927 4.79688 56.9747 5.83984 56.9747V56.9357C5.83984 56.7443 5.75391 56.4825 5.30469 56.4825C5.00391 56.4825 4.68359 56.6036 4.49219 56.7443L4.32031 56.0646C4.52734 55.9239 4.92969 55.756 5.46484 55.756C6.44531 55.756 6.75391 56.4239 6.75391 57.2325M5.86719 57.6427C5.38672 57.6427 5.01562 57.7755 5.01562 58.1857C5.01562 58.4552 5.17188 58.5841 5.375 58.5841C5.59766 58.5841 5.79297 58.4122 5.85156 58.1935C5.86328 58.1349 5.86719 58.0724 5.86719 58.0138V57.6427ZM9.86328 55.8341L10.2578 57.4239C10.332 57.713 10.3789 57.9825 10.4258 58.256H10.4453C10.4922 57.9747 10.543 57.713 10.6094 57.4239L10.9883 55.8341H11.9492L10.8555 59.256H9.94141L8.86719 55.8341M13.5586 54.8849C13.5586 55.1739 13.3711 55.4161 13.0664 55.4161C12.7773 55.4161 12.5898 55.1739 12.5898 54.8849C12.5898 54.5841 12.7812 54.3536 13.0781 54.3536C13.3711 54.3536 13.5508 54.5841 13.5586 54.8849ZM12.6133 55.8341H13.5273V59.256H12.6133V55.8341ZM17.3594 54.2833V58.2325C17.3594 58.6232 17.3711 59.0255 17.3828 59.256H16.5703L16.5312 58.7638H16.5156C16.3359 59.1427 15.9727 59.3341 15.5938 59.3341C14.8945 59.3341 14.3359 58.6427 14.3359 57.5724C14.3281 56.4239 14.9492 55.756 15.6523 55.756C16.0195 55.756 16.2969 55.9044 16.4297 56.1349H16.4453V54.2833M16.4453 57.2833C16.4453 57.2247 16.4453 57.1544 16.4297 57.0841C16.375 56.8029 16.1758 56.5724 15.8945 56.5724C15.4727 56.5724 15.2617 57.006 15.2617 57.545C15.2617 58.1232 15.5078 58.4825 15.8906 58.4825C16.1523 58.4825 16.3711 58.2833 16.4219 57.9747C16.4375 57.9044 16.4453 57.8146 16.4453 57.7325V57.2833ZM20.7852 58.4357C20.7852 58.756 20.7969 59.0646 20.832 59.256H20.0078L19.9531 58.9122H19.9336C19.7422 59.1857 19.4414 59.3341 19.0938 59.3341C18.4961 59.3341 18.1406 58.8341 18.1406 58.2833C18.1406 57.3927 18.8281 56.9747 19.8711 56.9747V56.9357C19.8711 56.7443 19.7852 56.4825 19.332 56.4825C19.0312 56.4825 18.7109 56.6036 18.5195 56.7443L18.3516 56.0646C18.5547 55.9239 18.9609 55.756 19.4961 55.756C20.4766 55.756 20.7852 56.4239 20.7852 57.2325M19.8984 57.6427C19.4141 57.6427 19.043 57.7755 19.043 58.1857C19.043 58.4552 19.1992 58.5841 19.4062 58.5841C19.625 58.5841 19.8203 58.4122 19.8789 58.1935C19.8945 58.1349 19.8984 58.0724 19.8984 58.0138V57.6427ZM23.9141 57.8849C23.9375 58.3224 24.3164 58.5333 24.7461 58.5333C25.0586 58.5333 25.3125 58.4825 25.5586 58.3849L25.6797 59.1154C25.3789 59.256 25.0117 59.3224 24.6133 59.3224C23.6133 59.3224 23.043 58.6544 23.043 57.5841C23.043 56.713 23.5039 55.756 24.5273 55.756C25.4805 55.756 25.8398 56.6154 25.8398 57.463C25.8398 57.6427 25.8242 57.8029 25.8125 57.8849M24.9922 57.1544C24.9922 56.9044 24.8984 56.463 24.4766 56.463C24.0898 56.463 23.9336 56.8732 23.9102 57.1544H24.9922ZM26.625 58.3341C26.793 58.4552 27.1445 58.5841 27.4141 58.5841C27.6914 58.5841 27.8047 58.4825 27.8047 58.3029C27.8047 58.1232 27.7148 58.045 27.3789 57.9044C26.7656 57.6739 26.5273 57.2833 26.5352 56.8732C26.5352 56.2325 27.0039 55.756 27.7344 55.756C28.0742 55.756 28.3789 55.8536 28.5586 55.9552L28.4023 56.6935C28.2695 56.6036 28.0078 56.4943 27.7617 56.4943C27.5391 56.4943 27.4141 56.5958 27.4141 56.7638C27.4141 56.9357 27.5273 57.0255 27.8906 57.1661C28.4492 57.3927 28.6797 57.7247 28.6875 58.2247C28.6875 58.8654 28.2578 59.3341 27.4141 59.3341C27.0273 59.3341 26.6875 59.2325 26.4609 59.0958M33.7188 58.1661C33.7188 58.6036 33.7305 58.9747 33.7422 59.256H32.9453L32.9062 58.7755H32.8867C32.7734 58.9864 32.4961 59.3341 31.9688 59.3341C31.3633 59.3341 30.9297 58.9044 30.9297 57.8458V55.8341H31.8438V57.6739C31.8438 58.1739 31.9844 58.4747 32.3086 58.4747C32.5625 58.4747 32.7148 58.2755 32.7656 58.1036C32.793 58.045 32.8047 57.963 32.8047 57.8732V55.8341H33.7188M34.6914 56.9239C34.6914 56.506 34.6797 56.1427 34.6719 55.8341H35.4648L35.5078 56.3146H35.5234C35.6445 56.0841 35.9375 55.756 36.4336 55.756C37.0352 55.756 37.4844 56.2247 37.4844 57.2325V59.256H36.5703V57.3654C36.5703 56.9239 36.4375 56.6154 36.1094 56.6154C35.8555 56.6154 35.707 56.8224 35.6367 57.0138C35.6133 57.0841 35.6094 57.1857 35.6094 57.2833V59.256H34.6914M40.625 57.8849C40.6484 58.3224 41.0273 58.5333 41.457 58.5333C41.7695 58.5333 42.0195 58.4825 42.2695 58.3849L42.3867 59.1154C42.0898 59.256 41.7188 59.3224 41.3242 59.3224C40.3242 59.3224 39.7539 58.6544 39.7539 57.5841C39.7539 56.713 40.2148 55.756 41.2383 55.756C42.1914 55.756 42.5508 56.6154 42.5508 57.463C42.5508 57.6427 42.5312 57.8029 42.5195 57.8849M41.7031 57.1544C41.7031 56.9044 41.6055 56.463 41.1836 56.463C40.8008 56.463 40.6445 56.8732 40.6211 57.1544H41.7031ZM43.3359 58.3341C43.5039 58.4552 43.8516 58.5841 44.125 58.5841C44.3984 58.5841 44.5156 58.4825 44.5156 58.3029C44.5156 58.1232 44.4219 58.045 44.0859 57.9044C43.4727 57.6739 43.2383 57.2833 43.2461 56.8732C43.2461 56.2325 43.7148 55.756 44.4414 55.756C44.7852 55.756 45.0859 55.8536 45.2656 55.9552L45.1094 56.6935C44.9766 56.6036 44.7188 56.4943 44.4727 56.4943C44.25 56.4943 44.125 56.5958 44.125 56.7638C44.125 56.9357 44.2383 57.0255 44.5977 57.1661C45.1562 57.3927 45.3867 57.7247 45.3945 58.2247C45.3945 58.8654 44.9648 59.3341 44.125 59.3341C43.7383 59.3341 43.3945 59.2325 43.1719 59.0958M46.1953 56.9825C46.1953 56.5333 46.1797 56.1544 46.1719 55.8341H46.9648L47.0078 56.3146H47.0195C47.2344 55.9552 47.5742 55.756 48 55.756C48.6445 55.756 49.2227 56.4161 49.2227 57.506C49.2227 58.7443 48.543 59.3341 47.8867 59.3341C47.5312 59.3341 47.2539 59.1661 47.1211 58.9435H47.1094V60.6427H46.1953M47.1094 57.7833C47.1094 57.8732 47.1133 57.9435 47.1289 58.0138C47.1875 58.295 47.3984 58.5138 47.6641 58.5138C48.0586 58.5138 48.2969 58.1349 48.2969 57.5529C48.2969 57.006 48.0859 56.5958 47.6758 56.5958C47.418 56.5958 47.1875 56.8146 47.1289 57.1349C47.1133 57.1857 47.1094 57.256 47.1094 57.3146V57.7833ZM50.7578 57.8849C50.7812 58.3224 51.1602 58.5333 51.5898 58.5333C51.9023 58.5333 52.1523 58.4825 52.4023 58.3849L52.5195 59.1154C52.2227 59.256 51.8555 59.3224 51.457 59.3224C50.457 59.3224 49.8867 58.6544 49.8867 57.5841C49.8867 56.713 50.3477 55.756 51.3711 55.756C52.3203 55.756 52.6836 56.6154 52.6836 57.463C52.6836 57.6427 52.668 57.8029 52.6523 57.8849M51.8359 57.1544C51.8359 56.9044 51.7383 56.463 51.3164 56.463C50.9336 56.463 50.7773 56.8732 50.75 57.1544H51.8359ZM55.6836 59.1661C55.5195 59.256 55.2148 59.3263 54.8633 59.3263C53.9141 59.3263 53.3047 58.6427 53.3047 57.5763C53.3047 56.5763 53.8945 55.756 54.9922 55.756C55.2305 55.756 55.4961 55.8029 55.6914 55.8927L55.5469 56.6857C55.4375 56.6232 55.2734 56.5763 55.0312 56.5763C54.5508 56.5763 54.2383 56.9747 54.2461 57.5333C54.2461 58.1544 54.6055 58.4943 55.0508 58.4943C55.2695 58.4943 55.4375 58.4552 55.5781 58.3849M57.5508 54.9161V55.8341H58.207V56.6232H57.5508V57.8536C57.5508 58.2755 57.6406 58.463 57.9102 58.463C58.0391 58.463 58.0977 58.4552 58.1836 58.4357L58.1875 59.2364C58.0742 59.2833 57.8516 59.3263 57.5977 59.3263C57.3047 59.3263 57.0586 59.213 56.9062 59.0333C56.7383 58.8341 56.6523 58.506 56.6523 58.0255V56.6232H56.2617V55.8341H56.6523V55.1935M61.4297 58.4357C61.4297 58.756 61.4414 59.0646 61.4766 59.256H60.6523L60.5977 58.9122H60.5781C60.3867 59.1857 60.0859 59.3341 59.7344 59.3341C59.1406 59.3341 58.7812 58.8341 58.7812 58.2833C58.7812 57.3927 59.4727 56.9747 60.5117 56.9747V56.9357C60.5117 56.7443 60.4297 56.4825 59.9766 56.4825C59.6758 56.4825 59.3555 56.6036 59.1641 56.7443L58.9961 56.0646C59.1992 55.9239 59.6016 55.756 60.1406 55.756C61.1211 55.756 61.4297 56.4239 61.4297 57.2325M60.543 57.6427C60.0586 57.6427 59.6875 57.7755 59.6875 58.1857C59.6875 58.4552 59.8438 58.5841 60.0508 58.5841C60.2695 58.5841 60.4648 58.4122 60.5234 58.1935C60.5391 58.1349 60.543 58.0724 60.543 58.0138V57.6427ZM61.1445 54.3458L60.4102 55.4044H59.7852L60.3008 54.3458H61.1445ZM64.6055 59.1661C64.4453 59.256 64.1367 59.3263 63.7891 59.3263C62.8359 59.3263 62.2305 58.6427 62.2305 57.5763C62.2305 56.5763 62.8164 55.756 63.9141 55.756C64.1562 55.756 64.4219 55.8029 64.6133 55.8927L64.4688 56.6857C64.3594 56.6232 64.1953 56.5763 63.957 56.5763C63.4727 56.5763 63.1641 56.9747 63.168 57.5333C63.168 58.1544 63.5273 58.4943 63.9766 58.4943C64.1914 58.4943 64.3594 58.4552 64.5 58.3849M68.1289 58.1661C68.1289 58.6036 68.1406 58.9747 68.1523 59.256H67.3594L67.3164 58.7755H67.2969C67.1836 58.9864 66.9062 59.3341 66.3789 59.3341C65.7734 59.3341 65.3398 58.9044 65.3398 57.8458V55.8341H66.2578V57.6739C66.2578 58.1739 66.3945 58.4747 66.7188 58.4747C66.9727 58.4747 67.125 58.2755 67.1797 58.1036C67.2031 58.045 67.2148 57.963 67.2148 57.8732V55.8341H68.1289" fill="#0C4C61"/>
<path fill-rule="evenodd" clipRule="evenodd" d="M69.1055 59.256H70.0195V54.2833H69.1055V59.256Z" fill="#0C4C61"/>
<path d="M73.9062 57.506C73.9062 58.7638 73.1445 59.3341 72.3555 59.3341C71.4961 59.3341 70.832 58.6739 70.832 57.5724C70.832 56.4552 71.457 55.756 72.4102 55.756C73.3047 55.756 73.9062 56.4747 73.9062 57.506ZM71.7773 57.545C71.7773 58.1349 71.9883 58.5724 72.3789 58.5724C72.7422 58.5724 72.9648 58.1661 72.9648 57.5333C72.9648 57.0333 72.7969 56.5138 72.3789 56.5138C71.9453 56.5138 71.7773 57.045 71.7773 57.545ZM78.1133 58.8224H78.1016C77.9141 59.1544 77.6211 59.3341 77.2227 59.3341C76.5859 59.3341 76.0039 58.6739 76.0039 57.5958C76.0039 56.3654 76.6719 55.756 77.3047 55.756C77.6836 55.756 77.9609 55.9161 78.1289 56.2325L78.1406 56.2443L78.168 55.8341H79.0469C79.0391 56.1739 79.0273 56.506 79.0273 56.8654V60.6427H78.1133M78.1133 57.2755C78.1133 57.2052 78.1055 57.1544 78.0938 57.0958C78.0469 56.8224 77.8477 56.5841 77.5664 56.5841C77.1484 56.5841 76.9297 56.9943 76.9297 57.5529C76.9297 58.1154 77.1758 58.4943 77.5586 58.4943C77.8164 58.4943 78.0273 58.295 78.0898 58.0138C78.1055 57.9435 78.1133 57.8536 78.1133 57.7833V57.2755ZM82.7734 58.1661C82.7734 58.6036 82.7852 58.9747 82.7969 59.256H82L81.9609 58.7755H81.9414C81.8281 58.9864 81.5508 59.3341 81.0195 59.3341C80.418 59.3341 79.9844 58.9044 79.9844 57.8458V55.8341H80.8984V57.674C80.8984 58.174 81.0391 58.4747 81.3633 58.4747C81.6133 58.4747 81.7656 58.2755 81.8203 58.1036C81.8437 58.045 81.8555 57.963 81.8555 57.8732V55.8341H82.7734M84.4531 57.8849C84.4766 58.3224 84.8555 58.5333 85.2852 58.5333C85.5977 58.5333 85.8516 58.4825 86.0977 58.3849L86.2188 59.1154C85.918 59.256 85.5508 59.3224 85.1523 59.3224C84.1523 59.3224 83.582 58.6544 83.582 57.5841C83.582 56.713 84.043 55.756 85.0664 55.756C86.0195 55.756 86.3789 56.6154 86.3789 57.463C86.3789 57.6427 86.3633 57.8029 86.3477 57.8849M85.5312 57.1544C85.5312 56.9044 85.4336 56.463 85.0156 56.463C84.6289 56.463 84.4727 56.8732 84.4492 57.1544H85.5312ZM89.6484 54.9161V55.8341H90.3047V56.6232H89.6484V57.8536C89.6484 58.2755 89.7383 58.463 90.0117 58.463C90.1367 58.463 90.1953 58.4552 90.2812 58.4357L90.2891 59.2365C90.1719 59.2833 89.9531 59.3263 89.6953 59.3263C89.4023 59.3263 89.1562 59.213 89.0039 59.0333C88.8359 58.8341 88.7539 58.506 88.7539 58.0255V56.6232H88.3594V55.8341H88.7539V55.1935M93.9531 57.506C93.9531 58.7638 93.1875 59.3341 92.4023 59.3341C91.5391 59.3341 90.8789 58.6739 90.8789 57.5724C90.8789 56.4552 91.5039 55.756 92.457 55.756C93.3516 55.756 93.9531 56.4747 93.9531 57.506ZM91.8242 57.545C91.8242 58.1349 92.0352 58.5724 92.4258 58.5724C92.7852 58.5724 93.0078 58.1661 93.0078 57.5333C93.0078 57.0333 92.8398 56.5138 92.4258 56.5138C91.9922 56.5138 91.8242 57.045 91.8242 57.545ZM97.6328 54.2833V58.2325C97.6328 58.6232 97.6445 59.0255 97.6562 59.256H96.8438L96.8086 58.7638H96.793C96.6094 59.1427 96.25 59.3341 95.8711 59.3341C95.1719 59.3341 94.6094 58.6427 94.6094 57.5724C94.6055 56.4239 95.2266 55.756 95.9297 55.756C96.2969 55.756 96.5742 55.9044 96.707 56.1349H96.7188V54.2833M96.7188 57.2833C96.7188 57.2247 96.7188 57.1544 96.707 57.0841C96.6523 56.8029 96.4531 56.5724 96.1719 56.5724C95.75 56.5724 95.5391 57.006 95.5391 57.545C95.5391 58.1232 95.7852 58.4825 96.1641 58.4825C96.4297 58.4825 96.6445 58.2833 96.6992 57.9747C96.7109 57.9044 96.7188 57.8146 96.7188 57.7325V57.2833ZM101.516 57.506C101.516 58.7638 100.754 59.3341 99.9648 59.3341C99.1016 59.3341 98.4414 58.6739 98.4414 57.5724C98.4414 56.4552 99.0664 55.756 100.02 55.756C100.914 55.756 101.516 56.4747 101.516 57.506ZM99.3867 57.545C99.3867 58.1349 99.5977 58.5724 99.9883 58.5724C100.352 58.5724 100.57 58.1661 100.57 57.5333C100.57 57.0333 100.402 56.5138 99.9883 56.5138C99.5547 56.5138 99.3867 57.045 99.3867 57.545ZM102.316 58.3341C102.484 58.4552 102.836 58.5841 103.105 58.5841C103.383 58.5841 103.5 58.4825 103.5 58.3029C103.5 58.1232 103.406 58.045 103.07 57.9044C102.457 57.6739 102.223 57.2833 102.227 56.8732C102.227 56.2325 102.695 55.756 103.426 55.756C103.77 55.756 104.07 55.8536 104.25 55.9552L104.094 56.6935C103.961 56.6036 103.703 56.4943 103.457 56.4943C103.234 56.4943 103.105 56.5958 103.105 56.7638C103.105 56.9357 103.223 57.0255 103.582 57.1661C104.141 57.3927 104.371 57.7247 104.379 58.2247C104.379 58.8654 103.949 59.3341 103.105 59.3341C102.723 59.3341 102.379 59.2325 102.156 59.0958M109.488 54.2833V58.2325C109.488 58.6232 109.5 59.0255 109.512 59.256H108.699L108.664 58.7638H108.648C108.465 59.1427 108.102 59.3341 107.727 59.3341C107.027 59.3341 106.465 58.6427 106.465 57.5724C106.461 56.4239 107.082 55.756 107.785 55.756C108.152 55.756 108.43 55.9044 108.562 56.1349H108.574V54.2833M108.574 57.2833C108.574 57.2247 108.574 57.1544 108.562 57.0841C108.508 56.8029 108.309 56.5724 108.027 56.5724C107.605 56.5724 107.395 57.006 107.395 57.545C107.395 58.1232 107.641 58.4825 108.02 58.4825C108.281 58.4825 108.504 58.2833 108.555 57.9747C108.566 57.9044 108.574 57.8146 108.574 57.7325V57.2833ZM111.168 57.8849C111.191 58.3224 111.57 58.5333 112 58.5333C112.312 58.5333 112.566 58.4825 112.812 58.3849L112.934 59.1154C112.633 59.256 112.266 59.3224 111.867 59.3224C110.867 59.3224 110.297 58.6544 110.297 57.5841C110.297 56.713 110.762 55.756 111.781 55.756C112.734 55.756 113.094 56.6154 113.094 57.463C113.094 57.6427 113.078 57.8029 113.066 57.8849M112.246 57.1544C112.246 56.9044 112.148 56.463 111.73 56.463C111.344 56.463 111.188 56.8732 111.164 57.1544H112.246ZM113.887 54.2833H114.801V56.2443H114.812C114.988 55.9435 115.293 55.7638 115.703 55.7638C116.406 55.7638 116.922 56.4357 116.914 57.4825C116.914 58.7247 116.246 59.3341 115.57 59.3341C115.227 59.3341 114.891 59.1857 114.688 58.7833H114.672L114.637 59.256H113.863C113.875 59.0333 113.887 58.6232 113.887 58.2325M114.801 57.8029C114.801 57.8732 114.809 57.9357 114.82 57.9943C114.879 58.2755 115.09 58.4943 115.355 58.4943C115.746 58.4943 115.984 58.1427 115.984 57.5333C115.984 56.9943 115.781 56.5724 115.355 56.5724C115.105 56.5724 114.879 56.795 114.82 57.1036C114.809 57.1622 114.801 57.2247 114.801 57.295V57.8029ZM118.449 57.8849C118.473 58.3224 118.852 58.5333 119.281 58.5333C119.594 58.5333 119.844 58.4825 120.094 58.3849L120.211 59.1154C119.914 59.256 119.543 59.3224 119.148 59.3224C118.148 59.3224 117.574 58.6544 117.574 57.5841C117.574 56.713 118.039 55.756 119.062 55.756C120.016 55.756 120.375 56.6154 120.375 57.463C120.375 57.6427 120.355 57.8029 120.344 57.8849M119.527 57.1544C119.527 56.9044 119.43 56.463 119.008 56.463C118.625 56.463 118.469 56.8732 118.441 57.1544H119.527ZM121.164 56.924C121.164 56.506 121.152 56.1427 121.141 55.8341H121.934L121.977 56.3146H121.996C122.113 56.0841 122.414 55.756 122.902 55.756C123.508 55.756 123.961 56.2247 123.961 57.2325V59.256H123.043V57.3654C123.043 56.9239 122.91 56.6154 122.582 56.6154C122.328 56.6154 122.176 56.8224 122.109 57.0138C122.086 57.0841 122.078 57.1857 122.078 57.2833V59.256H121.164M127.07 55.8341L127.469 57.424C127.543 57.713 127.59 57.9825 127.637 58.256H127.656C127.707 57.9747 127.754 57.713 127.82 57.424L128.195 55.8341H129.16L128.066 59.256H127.148L126.078 55.8341M130.438 57.8849C130.461 58.3224 130.84 58.5333 131.27 58.5333C131.582 58.5333 131.836 58.4825 132.082 58.3849L132.203 59.1154C131.898 59.256 131.535 59.3224 131.137 59.3224C130.137 59.3224 129.562 58.6544 129.562 57.5841C129.562 56.713 130.027 55.756 131.051 55.756C132.004 55.756 132.363 56.6154 132.363 57.463C132.363 57.6427 132.344 57.8029 132.336 57.8849M131.516 57.1544C131.516 56.9044 131.418 56.463 130.996 56.463C130.613 56.463 130.457 56.8732 130.43 57.1544H131.516ZM133.152 56.963C133.152 56.463 133.148 56.1232 133.129 55.8341H133.91L133.945 56.463H133.973C134.121 55.963 134.477 55.756 134.766 55.756C134.852 55.756 134.891 55.756 134.957 55.7755V56.7755C134.887 56.756 134.816 56.7443 134.715 56.7443C134.375 56.7443 134.148 56.9552 134.086 57.2833C134.074 57.3536 134.066 57.4357 134.066 57.5255V59.256H133.152" fill="#0C4C61"/>
</svg>
