<svg width="162" height="62" viewBox="0 0 162 62" fill="none" xmlns="http://www.w3.org/2000/svg">
<path d="M161.203 15.7109C161.367 23.7109 156.309 29.2109 151.871 33.7187C146.883 38.789 142.027 42.4413 136.637 45.5312V42.2382C140.801 39.5507 145.637 36.1913 149.773 31.9804C153.773 27.9218 158.906 22.3788 158.344 14.9413C158.066 11.2695 155.828 6.98041 151.109 7.57806C145.531 8.289 142.387 14.1718 138.73 17.0703C138.215 16.5585 137.293 16.4609 136.637 16.1015C137.891 7.92963 133.824 2.6015 126.547 3.51947C118.359 4.55072 117.383 15.539 120.641 23.0703C120.043 23.7499 119.023 24.0117 117.977 24.2304C113.934 14.5312 116.23 1.94916 126.164 0.609313C133.719 -0.3985 139.137 4.37103 139.492 11.8398C143.039 9.44135 148.832 1.80853 155.867 5.44916C159.395 7.28119 161.102 11.0898 161.203 15.7109ZM19.7031 29.0507C19.7031 29.0507 17.6562 26.4218 13.2148 26.4218H0V49.3398H12.8047C12.8047 49.3398 17.4219 49.2812 19.5273 46.8281C19.5273 46.8281 21.9258 44.8398 21.9258 37.9999C21.9258 37.9999 22.293 31.6484 19.7031 29.0507ZM15.9023 37.7695C15.9023 42.2695 14.3242 43.1992 14.3242 43.1992C12.7773 44.7499 9.58984 44.6601 9.58984 44.6601H5.96484V31.039H10.1133C13.2734 31.039 14.1484 32.2109 14.1484 32.2109C16.2539 34.3203 15.9023 37.7695 15.9023 37.7695ZM44.668 26.4218H28.7656C28.7656 26.4218 25.5508 26.4804 25.5508 29.9296V46.0703C25.5508 46.0703 25.6094 49.3398 28.9414 49.3398H44.6094V44.8398H31.4531V39.8085H44.3789V35.9492H31.5156V30.9882H44.668M71.6836 26.4218H65.4258L58.8789 44.6093L52.4453 26.4218H46.1328L54.4336 47.121C54.4336 47.121 55.5469 49.5195 58.8789 49.5195C58.8789 49.5195 61.8008 49.8085 63.1445 47.2382M76.418 49.2812H92.0859V44.7812H79.1641V26.4218H73.0859V46.1288C73.0859 46.1288 73.1992 49.2812 76.418 49.2812ZM96.5312 42.4999V49.2812H102.434V42.4999L112.141 26.4804H105.707L99.5117 37.3007L93.1406 26.4218H86.707" fill="white"/>
<path d="M128.922 48.1093L118.57 32.4999V49.3398H113.547V29.3515C113.547 29.3515 113.719 26.1288 117.812 26.1288C117.812 26.1288 120.734 25.9609 122.316 28.4101L131.902 43.0898V26.4218H136.812V45.7187C136.812 45.7187 137.07 49.3398 132.84 49.5195C132.84 49.5195 129.973 49.6913 128.922 48.1093ZM0.609375 6.24994H9.24609V7.67181H2.70312V12.0195H8.74609V13.4218H2.70312V19.3593H0.609375M21.9062 16.7695C21.9062 17.7617 21.9297 18.621 22 19.3593H20.1445L20.0273 17.8203H19.9805C19.4531 18.5781 18.2188 19.5703 16.1719 19.5703C14.3633 19.5703 12.1992 18.7304 12.1992 15.4492V9.94135H14.293V15.1406C14.293 16.9296 14.9805 18.1484 16.8633 18.1484C18.2656 18.1484 19.2422 17.3515 19.6211 16.5781C19.7422 16.3398 19.8125 16.0312 19.8125 15.6992V9.94135H21.9062M26.332 12.4882C26.332 11.4999 26.3086 10.7187 26.2344 9.94135H28.0938L28.2109 11.4999H28.2578C28.832 10.621 30.1641 9.74994 32.0664 9.74994C33.6602 9.74994 36.1367 10.5312 36.1367 13.7499V19.3593H34.0391V13.9296C34.0391 12.4101 33.3516 11.1484 31.375 11.1484C30.0195 11.1484 28.9492 11.9492 28.5703 12.8984C28.4727 13.1093 28.4258 13.4101 28.4258 13.6992V19.3593H26.332M50.4102 5.55072V16.9218C50.4102 17.7617 50.457 18.7109 50.5078 19.3593H48.6523L48.5547 17.7187H48.4844C47.8672 18.7695 46.4844 19.5703 44.6055 19.5703C41.8203 19.5703 39.6562 17.6406 39.6562 14.789C39.6328 11.6484 42.0352 9.74994 44.8203 9.74994C46.6055 9.74994 47.7695 10.4296 48.293 11.1718H48.3438V5.55072M48.3438 13.7695C48.3438 13.5585 48.3164 13.2695 48.2461 13.0507C47.9375 11.9804 46.7969 11.0898 45.2266 11.0898C43.0586 11.0898 41.7734 12.6484 41.7734 14.7109C41.7734 16.6093 42.9414 18.1913 45.1797 18.1913C46.582 18.1913 47.8672 17.4101 48.2461 16.1484C48.3164 15.9101 48.3438 15.6796 48.3438 15.4101V13.7695ZM62.9531 17.1015C62.9531 17.9218 63 18.7109 63.1172 19.3593H61.2383L61.0742 18.1718H61C60.3594 18.9101 59.1211 19.5703 57.4805 19.5703C55.1484 19.5703 53.957 18.2304 53.957 16.871C53.957 14.5898 56.4336 13.3515 60.8828 13.3593V13.1718C60.8828 12.4101 60.6211 10.9882 58.2656 11.0117C57.168 11.0117 56.0508 11.2617 55.2422 11.7109L54.7656 10.5585C55.7188 10.0781 57.1211 9.74994 58.5742 9.74994C62.0977 9.74994 62.9531 11.7109 62.9531 13.5781M60.9297 14.5507C58.6445 14.5117 56.0508 14.8398 56.0508 16.6718C56.0508 17.8007 56.9531 18.3085 58.0039 18.3085C59.5273 18.3085 60.5 17.5312 60.832 16.7304C60.9062 16.539 60.9297 16.3398 60.9297 16.1913V14.5507ZM75.4922 19.0312C74.9453 19.2382 73.7305 19.5703 72.1836 19.5703C68.7109 19.5703 66.4492 17.6484 66.4492 14.7695C66.4492 11.871 68.875 9.74994 72.6367 9.74994C73.8711 9.74994 74.9688 9.99994 75.5391 10.2499L75.0625 11.5585C74.5625 11.3398 73.7773 11.1093 72.6367 11.1093C69.9961 11.1093 68.5664 12.7187 68.5664 14.6718C68.5664 16.8515 70.2812 18.1913 72.5664 18.1913C73.7539 18.1913 74.5391 17.9609 75.1367 17.7382M81.2266 7.30072C81.2266 7.87885 80.7266 8.3515 79.8945 8.3515C79.1328 8.3515 78.6328 7.87885 78.6328 7.30072C78.6328 6.71088 79.1562 6.23041 79.9414 6.23041C80.7031 6.23041 81.2266 6.69135 81.2266 7.30072ZM78.8945 9.94135H80.9883V19.3593H78.8945V9.94135ZM95.8359 14.5703C95.8359 18.0507 92.8594 19.5703 90.1016 19.5703C87.0078 19.5703 84.582 17.6992 84.582 14.7304C84.582 11.6015 87.1289 9.74994 90.293 9.74994C93.5977 9.74994 95.8359 11.7109 95.8359 14.5703ZM86.7227 14.6718C86.7227 16.7304 88.1484 18.289 90.1953 18.289C92.1953 18.289 93.6953 16.7499 93.6953 14.6288C93.6953 13.039 92.7188 11.0312 90.2422 11.0312C87.793 11.0312 86.7227 12.8984 86.7227 14.6718ZM93.3359 5.87885L90.4336 8.6601H88.957L91.0312 5.87885H93.3359ZM99.4297 12.4882C99.4297 11.4999 99.4062 10.7187 99.3359 9.94135H101.191L101.309 11.4999H101.359C101.93 10.621 103.262 9.74994 105.164 9.74994C106.758 9.74994 109.234 10.5312 109.234 13.7499V19.3593H107.141V13.9296C107.141 12.4101 106.449 11.1484 104.473 11.1484C103.117 11.1484 102.047 11.9492 101.668 12.8984C101.57 13.1093 101.523 13.4101 101.523 13.6992V19.3593H99.4297M1 55.0195H1.91406V58.8398H3.52734V59.7304H1M6.75391 58.9101C6.75391 59.2304 6.76563 59.539 6.80078 59.7304H5.97656L5.92188 59.3906H5.90625C5.71094 59.6601 5.41016 59.8085 5.0625 59.8085C4.46484 59.8085 4.11328 59.3085 4.11328 58.7617C4.11328 57.871 4.79688 57.4492 5.83984 57.4492V57.4101C5.83984 57.2187 5.75391 56.9609 5.30469 56.9609C5.00391 56.9609 4.68359 57.0781 4.49219 57.2187L4.32031 56.539C4.52734 56.3984 4.92969 56.2304 5.46484 56.2304C6.44531 56.2304 6.75391 56.8984 6.75391 57.7109M5.86719 58.121C5.38672 58.121 5.01562 58.2499 5.01562 58.6601C5.01562 58.9296 5.17188 59.0585 5.375 59.0585C5.59766 59.0585 5.79297 58.8906 5.85156 58.6718C5.86328 58.6093 5.86719 58.5507 5.86719 58.4882V58.121ZM9.86328 56.3085L10.2578 57.8984C10.332 58.1913 10.3789 58.4609 10.4258 58.7304H10.4453C10.4922 58.4492 10.543 58.1913 10.6094 57.8984L10.9883 56.3085H11.9492L10.8555 59.7304H9.9375L8.86719 56.3085M13.5586 55.3593C13.5586 55.6484 13.3711 55.8906 13.0664 55.8906C12.7773 55.8906 12.5898 55.6484 12.5898 55.3593C12.5898 55.0585 12.7812 54.8281 13.0781 54.8281C13.3711 54.8281 13.5508 55.0585 13.5586 55.3593ZM12.6133 56.3085H13.5273V59.7304H12.6133V56.3085ZM17.3594 54.7617V58.7109C17.3594 59.1015 17.3711 59.4999 17.3828 59.7304H16.5703L16.5312 59.2382H16.5156C16.3359 59.621 15.9727 59.8085 15.5938 59.8085C14.8945 59.8085 14.3359 59.121 14.3359 58.0507C14.3281 56.8984 14.9492 56.2304 15.6523 56.2304C16.0195 56.2304 16.2969 56.3789 16.4297 56.6093H16.4453V54.7617M16.4453 57.7617C16.4453 57.6992 16.4453 57.6288 16.4297 57.5585C16.375 57.2812 16.1758 57.0507 15.8945 57.0507C15.4727 57.0507 15.2617 57.4804 15.2617 58.0195C15.2617 58.6015 15.5078 58.9609 15.8867 58.9609C16.1523 58.9609 16.3711 58.7617 16.4219 58.4492C16.4336 58.3789 16.4453 58.289 16.4453 58.2109V57.7617ZM20.7852 58.9101C20.7852 59.2304 20.7969 59.539 20.832 59.7304H20.0078L19.9531 59.3906H19.9336C19.7422 59.6601 19.4414 59.8085 19.0898 59.8085C18.4961 59.8085 18.1406 59.3085 18.1406 58.7617C18.1406 57.871 18.8281 57.4492 19.8711 57.4492V57.4101C19.8711 57.2187 19.7852 56.9609 19.332 56.9609C19.0312 56.9609 18.7109 57.0781 18.5195 57.2187L18.3516 56.539C18.5547 56.3984 18.9609 56.2304 19.4961 56.2304C20.4766 56.2304 20.7852 56.8984 20.7852 57.7109M19.8984 58.121C19.4141 58.121 19.043 58.2499 19.043 58.6601C19.043 58.9296 19.1992 59.0585 19.4062 59.0585C19.625 59.0585 19.8203 58.8906 19.8789 58.6718C19.8945 58.6093 19.8984 58.5507 19.8984 58.4882V58.121ZM23.9141 58.3593C23.9375 58.8007 24.3164 59.0117 24.7461 59.0117C25.0586 59.0117 25.3125 58.9609 25.5586 58.8593L25.6797 59.5898C25.3789 59.7304 25.0117 59.8007 24.6133 59.8007C23.6133 59.8007 23.043 59.1289 23.043 58.0585C23.043 57.1913 23.5039 56.2304 24.5273 56.2304C25.4805 56.2304 25.8398 57.0898 25.8398 57.9414C25.8398 58.121 25.8242 58.2812 25.8125 58.3593M24.9922 57.6289C24.9922 57.3789 24.8984 56.9414 24.4766 56.9414C24.0898 56.9414 23.9336 57.3515 23.9102 57.6289H24.9922ZM26.625 58.8085C26.793 58.9296 27.1445 59.0585 27.4141 59.0585C27.6914 59.0585 27.8047 58.9609 27.8047 58.7812C27.8047 58.6015 27.7148 58.5195 27.3789 58.3789C26.7617 58.1484 26.5273 57.7617 26.5352 57.3515C26.5352 56.7109 27.0039 56.2304 27.7344 56.2304C28.0742 56.2304 28.3789 56.3281 28.5586 56.4296L28.4023 57.1718C28.2695 57.0781 28.0078 56.9687 27.7617 56.9687C27.5391 56.9687 27.4141 57.0703 27.4141 57.2382C27.4141 57.4101 27.5273 57.4999 27.8867 57.6406C28.4492 57.871 28.6797 58.1992 28.6836 58.6992C28.6836 59.3398 28.2578 59.8085 27.4141 59.8085C27.0273 59.8085 26.6836 59.7109 26.4609 59.5703M33.7188 58.6406C33.7188 59.0781 33.7305 59.4492 33.7422 59.7304H32.9453L32.9062 59.2499H32.8867C32.7734 59.4609 32.4961 59.8085 31.9688 59.8085C31.3633 59.8085 30.9297 59.3789 30.9297 58.3203V56.3085H31.8438V58.1484C31.8438 58.6484 31.9844 58.9492 32.3086 58.9492C32.5625 58.9492 32.7148 58.7499 32.7656 58.5781C32.7891 58.5195 32.8047 58.4414 32.8047 58.3515V56.3085H33.7188M34.6914 57.3984C34.6914 56.9804 34.6797 56.621 34.6719 56.3085H35.4648L35.5078 56.789H35.5234C35.6445 56.5585 35.9375 56.2304 36.4336 56.2304C37.0352 56.2304 37.4844 56.6992 37.4844 57.7109V59.7304H36.5703V57.8398C36.5703 57.3984 36.4375 57.0898 36.1094 57.0898C35.8555 57.0898 35.7031 57.3007 35.6367 57.4882C35.6133 57.5585 35.6094 57.6601 35.6094 57.7617V59.7304H34.6914M40.625 58.3593C40.6484 58.8007 41.0273 59.0117 41.457 59.0117C41.7695 59.0117 42.0195 58.9609 42.2695 58.8593L42.3867 59.5898C42.0898 59.7304 41.7188 59.8007 41.3242 59.8007C40.3242 59.8007 39.7539 59.1289 39.7539 58.0585C39.7539 57.1913 40.2148 56.2304 41.2383 56.2304C42.1914 56.2304 42.5508 57.0898 42.5508 57.9414C42.5508 58.121 42.5312 58.2812 42.5195 58.3593M41.7031 57.6289C41.7031 57.3789 41.6055 56.9414 41.1836 56.9414C40.8008 56.9414 40.6445 57.3515 40.6172 57.6289H41.7031ZM43.332 58.8085C43.5039 58.9296 43.8516 59.0585 44.1211 59.0585C44.3984 59.0585 44.5156 58.9609 44.5156 58.7812C44.5156 58.6015 44.4219 58.5195 44.0859 58.3789C43.4727 58.1484 43.2383 57.7617 43.2422 57.3515C43.2422 56.7109 43.7148 56.2304 44.4414 56.2304C44.7852 56.2304 45.0859 56.3281 45.2656 56.4296L45.1094 57.1718C44.9766 57.0781 44.7188 56.9687 44.4727 56.9687C44.25 56.9687 44.1211 57.0703 44.1211 57.2382C44.1211 57.4101 44.2383 57.4999 44.5977 57.6406C45.1562 57.871 45.3867 58.1992 45.3945 58.6992C45.3945 59.3398 44.9648 59.8085 44.1211 59.8085C43.7383 59.8085 43.3945 59.7109 43.1719 59.5703M46.1953 57.4609C46.1953 57.0117 46.1797 56.6288 46.1719 56.3085H46.9648L47.0078 56.789H47.0195C47.2344 56.4296 47.5742 56.2304 48 56.2304C48.6445 56.2304 49.2227 56.8906 49.2227 57.9804C49.2227 59.2187 48.543 59.8085 47.8867 59.8085C47.5312 59.8085 47.2539 59.6406 47.1211 59.4218H47.1094V61.121H46.1953M47.1094 58.2617C47.1094 58.3515 47.1133 58.4218 47.1289 58.4882C47.1875 58.7695 47.3984 58.9882 47.6641 58.9882C48.0586 58.9882 48.2969 58.6093 48.2969 58.0312C48.2969 57.4804 48.082 57.0703 47.6758 57.0703C47.4141 57.0703 47.1875 57.289 47.1289 57.6093C47.1133 57.6601 47.1094 57.7304 47.1094 57.789V58.2617ZM50.7578 58.3593C50.7812 58.8007 51.1602 59.0117 51.5898 59.0117C51.9023 59.0117 52.1523 58.9609 52.4023 58.8593L52.5195 59.5898C52.2227 59.7304 51.8555 59.8007 51.457 59.8007C50.457 59.8007 49.8867 59.1289 49.8867 58.0585C49.8867 57.1913 50.3477 56.2304 51.3711 56.2304C52.3203 56.2304 52.6836 57.0898 52.6836 57.9414C52.6836 58.121 52.668 58.2812 52.6523 58.3593M51.8359 57.6289C51.8359 57.3789 51.7383 56.9414 51.3164 56.9414C50.9336 56.9414 50.7773 57.3515 50.75 57.6289H51.8359ZM55.6836 59.6406C55.5195 59.7304 55.2148 59.8007 54.8633 59.8007C53.9141 59.8007 53.3047 59.121 53.3047 58.0507C53.3047 57.0507 53.8945 56.2304 54.9922 56.2304C55.2305 56.2304 55.4961 56.2812 55.6914 56.371L55.5469 57.1601C55.4375 57.1015 55.2734 57.0507 55.0312 57.0507C54.5508 57.0507 54.2383 57.4492 54.2461 58.0117C54.2461 58.6289 54.6055 58.9687 55.0508 58.9687C55.2695 58.9687 55.4375 58.9296 55.5742 58.8593M57.5508 55.3906V56.3085H58.207V57.1015H57.5508V58.3281C57.5508 58.7499 57.6406 58.9414 57.9102 58.9414C58.0352 58.9414 58.0977 58.9296 58.1836 58.9101L58.1875 59.7109C58.0742 59.7617 57.8516 59.8007 57.5977 59.8007C57.3047 59.8007 57.0586 59.6914 56.9062 59.5117C56.7383 59.3085 56.6523 58.9804 56.6523 58.4999V57.1015H56.2617V56.3085H56.6523V55.6718M61.4297 58.9101C61.4297 59.2304 61.4414 59.539 61.4766 59.7304H60.6523L60.5977 59.3906H60.5781C60.3867 59.6601 60.0859 59.8085 59.7344 59.8085C59.1406 59.8085 58.7812 59.3085 58.7812 58.7617C58.7812 57.871 59.4727 57.4492 60.5117 57.4492V57.4101C60.5117 57.2187 60.4297 56.9609 59.9766 56.9609C59.6758 56.9609 59.3555 57.0781 59.1641 57.2187L58.9961 56.539C59.1992 56.3984 59.6016 56.2304 60.1406 56.2304C61.1211 56.2304 61.4297 56.8984 61.4297 57.7109M60.543 58.121C60.0586 58.121 59.6875 58.2499 59.6875 58.6601C59.6875 58.9296 59.8438 59.0585 60.0508 59.0585C60.2695 59.0585 60.4648 58.8906 60.5234 58.6718C60.5352 58.6093 60.543 58.5507 60.543 58.4882V58.121ZM61.1445 54.8203L60.4102 55.8789H59.7852L60.3008 54.8203H61.1445ZM64.6055 59.6406C64.4453 59.7304 64.1367 59.8007 63.7891 59.8007C62.8359 59.8007 62.2305 59.121 62.2305 58.0507C62.2305 57.0507 62.8164 56.2304 63.9141 56.2304C64.1562 56.2304 64.4219 56.2812 64.6133 56.371L64.4688 57.1601C64.3594 57.1015 64.1953 57.0507 63.957 57.0507C63.4727 57.0507 63.1602 57.4492 63.168 58.0117C63.168 58.6289 63.5273 58.9687 63.9766 58.9687C64.1914 58.9687 64.3594 58.9296 64.4961 58.8593M68.1289 58.6406C68.1289 59.0781 68.1406 59.4492 68.1523 59.7304H67.3594L67.3164 59.2499H67.2969C67.1836 59.4609 66.9062 59.8085 66.3789 59.8085C65.7734 59.8085 65.3398 59.3789 65.3398 58.3203V56.3085H66.2578V58.1484C66.2578 58.6484 66.3945 58.9492 66.7188 58.9492C66.9727 58.9492 67.125 58.7499 67.1797 58.5781C67.1992 58.5195 67.2148 58.4414 67.2148 58.3515V56.3085H68.1289" fill="white"/>
<path fill-rule="evenodd" clipRule="evenodd" d="M69.1055 59.7304H70.0195V54.7578H69.1055V59.7304Z" fill="white"/>
<path d="M73.9062 57.9804C73.9062 59.2382 73.1445 59.8085 72.3555 59.8085C71.4961 59.8085 70.832 59.1484 70.832 58.0507C70.832 56.9296 71.457 56.2304 72.4102 56.2304C73.3047 56.2304 73.9062 56.9492 73.9062 57.9804ZM71.7773 58.0195C71.7773 58.6093 71.9883 59.0507 72.3789 59.0507C72.7422 59.0507 72.9648 58.6406 72.9648 58.0117C72.9648 57.5117 72.7969 56.9882 72.3789 56.9882C71.9453 56.9882 71.7773 57.5195 71.7773 58.0195ZM78.1133 59.3007H78.1016C77.9141 59.6288 77.6172 59.8085 77.2227 59.8085C76.582 59.8085 76.0039 59.1484 76.0039 58.0703C76.0039 56.8398 76.6719 56.2304 77.3047 56.2304C77.6836 56.2304 77.9609 56.3906 78.1289 56.7109L78.1406 56.7187L78.168 56.3085H79.0469C79.0391 56.6484 79.0273 56.9804 79.0273 57.3398V61.121H78.1133M78.1133 57.7499C78.1133 57.6796 78.1055 57.6288 78.0938 57.5703C78.0469 57.3007 77.8477 57.0585 77.5664 57.0585C77.1484 57.0585 76.9297 57.4687 76.9297 58.0312C76.9297 58.5898 77.1758 58.9687 77.5586 58.9687C77.8164 58.9687 78.0273 58.7695 78.0898 58.4882C78.1055 58.4218 78.1133 58.3281 78.1133 58.2617V57.7499ZM82.7734 58.6406C82.7734 59.0781 82.7852 59.4492 82.7969 59.7304H82L81.957 59.2499H81.9414C81.8242 59.4609 81.5508 59.8085 81.0195 59.8085C80.418 59.8085 79.9844 59.3788 79.9844 58.3203V56.3085H80.8984V58.1484C80.8984 58.6484 81.0391 58.9492 81.3633 58.9492C81.6133 58.9492 81.7656 58.7499 81.8203 58.5781C81.8437 58.5195 81.8555 58.4413 81.8555 58.3515V56.3085H82.7734M84.4531 58.3593C84.4766 58.8007 84.8555 59.0117 85.2852 59.0117C85.5977 59.0117 85.8516 58.9609 86.0977 58.8593L86.2188 59.5898C85.9141 59.7304 85.5508 59.8007 85.1523 59.8007C84.1523 59.8007 83.5781 59.1288 83.5781 58.0585C83.5781 57.1913 84.043 56.2304 85.0664 56.2304C86.0195 56.2304 86.3789 57.0898 86.3789 57.9413C86.3789 58.121 86.3633 58.2812 86.3477 58.3593M85.5312 57.6288C85.5312 57.3788 85.4336 56.9413 85.0156 56.9413C84.6289 56.9413 84.4727 57.3515 84.4492 57.6288H85.5312ZM89.6484 55.3906V56.3085H90.3047V57.1015H89.6484V58.3281C89.6484 58.7499 89.7383 58.9413 90.0117 58.9413C90.1367 58.9413 90.1953 58.9296 90.2812 58.9101L90.2891 59.7109C90.1719 59.7617 89.9492 59.8007 89.6953 59.8007C89.4023 59.8007 89.1562 59.6913 89.0039 59.5117C88.8359 59.3085 88.7539 58.9804 88.7539 58.4999V57.1015H88.3594V56.3085H88.7539V55.6718M93.9531 57.9804C93.9531 59.2382 93.1875 59.8085 92.4023 59.8085C91.5391 59.8085 90.8789 59.1484 90.8789 58.0507C90.8789 56.9296 91.5039 56.2304 92.4531 56.2304C93.3516 56.2304 93.9531 56.9492 93.9531 57.9804ZM91.8242 58.0195C91.8242 58.6093 92.0352 59.0507 92.4258 59.0507C92.7852 59.0507 93.0078 58.6406 93.0078 58.0117C93.0078 57.5117 92.8398 56.9882 92.4258 56.9882C91.9922 56.9882 91.8242 57.5195 91.8242 58.0195ZM97.6328 54.7617V58.7109C97.6328 59.1015 97.6445 59.4999 97.6562 59.7304H96.8438L96.8086 59.2382H96.7891C96.6094 59.621 96.25 59.8085 95.8711 59.8085C95.1719 59.8085 94.6094 59.121 94.6094 58.0507C94.6055 56.8984 95.2266 56.2304 95.9297 56.2304C96.2969 56.2304 96.5742 56.3788 96.707 56.6093H96.7188V54.7617M96.7188 57.7617C96.7188 57.6992 96.7188 57.6288 96.707 57.5585C96.6523 57.2812 96.4531 57.0507 96.1719 57.0507C95.75 57.0507 95.5391 57.4804 95.5391 58.0195C95.5391 58.6015 95.7852 58.9609 96.1641 58.9609C96.4297 58.9609 96.6445 58.7617 96.6992 58.4492C96.7109 58.3788 96.7188 58.289 96.7188 58.2109V57.7617ZM101.516 57.9804C101.516 59.2382 100.754 59.8085 99.9648 59.8085C99.1016 59.8085 98.4414 59.1484 98.4414 58.0507C98.4414 56.9296 99.0664 56.2304 100.02 56.2304C100.914 56.2304 101.516 56.9492 101.516 57.9804ZM99.3867 58.0195C99.3867 58.6093 99.5977 59.0507 99.9883 59.0507C100.352 59.0507 100.57 58.6406 100.57 58.0117C100.57 57.5117 100.402 56.9882 99.9883 56.9882C99.5547 56.9882 99.3867 57.5195 99.3867 58.0195ZM102.316 58.8085C102.484 58.9296 102.836 59.0585 103.105 59.0585C103.383 59.0585 103.496 58.9609 103.496 58.7812C103.496 58.6015 103.406 58.5195 103.07 58.3788C102.457 58.1484 102.223 57.7617 102.227 57.3515C102.227 56.7109 102.695 56.2304 103.426 56.2304C103.77 56.2304 104.07 56.3281 104.25 56.4296L104.094 57.1718C103.961 57.0781 103.703 56.9687 103.457 56.9687C103.234 56.9687 103.105 57.0703 103.105 57.2382C103.105 57.4101 103.223 57.4999 103.582 57.6406C104.141 57.871 104.371 58.1992 104.379 58.6992C104.379 59.3398 103.949 59.8085 103.105 59.8085C102.723 59.8085 102.379 59.7109 102.156 59.5703M109.488 54.7617V58.7109C109.488 59.1015 109.5 59.4999 109.512 59.7304H108.699L108.664 59.2382H108.648C108.465 59.621 108.102 59.8085 107.727 59.8085C107.027 59.8085 106.465 59.121 106.465 58.0507C106.461 56.8984 107.078 56.2304 107.785 56.2304C108.152 56.2304 108.43 56.3788 108.562 56.6093H108.574V54.7617M108.574 57.7617C108.574 57.6992 108.574 57.6288 108.562 57.5585C108.508 57.2812 108.309 57.0507 108.027 57.0507C107.605 57.0507 107.395 57.4804 107.395 58.0195C107.395 58.6015 107.641 58.9609 108.02 58.9609C108.281 58.9609 108.504 58.7617 108.555 58.4492C108.566 58.3788 108.574 58.289 108.574 58.2109V57.7617ZM111.168 58.3593C111.191 58.8007 111.57 59.0117 112 59.0117C112.312 59.0117 112.566 58.9609 112.812 58.8593L112.934 59.5898C112.633 59.7304 112.266 59.8007 111.867 59.8007C110.867 59.8007 110.297 59.1288 110.297 58.0585C110.297 57.1913 110.762 56.2304 111.781 56.2304C112.734 56.2304 113.094 57.0898 113.094 57.9413C113.094 58.121 113.078 58.2812 113.066 58.3593M112.246 57.6288C112.246 57.3788 112.148 56.9413 111.73 56.9413C111.344 56.9413 111.188 57.3515 111.164 57.6288H112.246ZM113.887 54.7617H114.801V56.7187H114.812C114.988 56.4218 115.293 56.2382 115.703 56.2382C116.406 56.2382 116.922 56.9101 116.914 57.9609C116.914 59.1992 116.246 59.8085 115.57 59.8085C115.227 59.8085 114.891 59.6601 114.688 59.2617H114.672L114.637 59.7304H113.863C113.871 59.5117 113.887 59.1015 113.887 58.7109M114.801 58.2812C114.801 58.3515 114.809 58.4101 114.82 58.4687C114.879 58.7499 115.09 58.9687 115.355 58.9687C115.746 58.9687 115.984 58.621 115.984 58.0117C115.984 57.4687 115.781 57.0507 115.355 57.0507C115.105 57.0507 114.879 57.2695 114.82 57.5781C114.809 57.6406 114.801 57.6992 114.801 57.7695V58.2812ZM118.449 58.3593C118.473 58.8007 118.852 59.0117 119.281 59.0117C119.594 59.0117 119.844 58.9609 120.094 58.8593L120.211 59.5898C119.91 59.7304 119.543 59.8007 119.148 59.8007C118.148 59.8007 117.574 59.1288 117.574 58.0585C117.574 57.1913 118.039 56.2304 119.062 56.2304C120.016 56.2304 120.375 57.0898 120.375 57.9413C120.375 58.121 120.355 58.2812 120.344 58.3593M119.527 57.6288C119.527 57.3788 119.43 56.9413 119.008 56.9413C118.625 56.9413 118.469 57.3515 118.441 57.6288H119.527ZM121.164 57.3984C121.164 56.9804 121.152 56.621 121.141 56.3085H121.934L121.977 56.789H121.996C122.113 56.5585 122.41 56.2304 122.902 56.2304C123.508 56.2304 123.957 56.6992 123.957 57.7109V59.7304H123.043V57.8398C123.043 57.3984 122.91 57.0898 122.578 57.0898C122.328 57.0898 122.176 57.3007 122.109 57.4882C122.086 57.5585 122.078 57.6601 122.078 57.7617V59.7304H121.164M127.07 56.3085L127.469 57.8984C127.539 58.1913 127.59 58.4609 127.637 58.7304H127.656C127.703 58.4492 127.754 58.1913 127.82 57.8984L128.195 56.3085H129.16L128.066 59.7304H127.148L126.078 56.3085M130.438 58.3593C130.461 58.8007 130.84 59.0117 131.27 59.0117C131.582 59.0117 131.836 58.9609 132.082 58.8593L132.203 59.5898C131.898 59.7304 131.535 59.8007 131.137 59.8007C130.137 59.8007 129.562 59.1288 129.562 58.0585C129.562 57.1913 130.027 56.2304 131.051 56.2304C132.004 56.2304 132.363 57.0898 132.363 57.9413C132.363 58.121 132.344 58.2812 132.332 58.3593M131.516 57.6288C131.516 57.3788 131.418 56.9413 130.996 56.9413C130.613 56.9413 130.457 57.3515 130.43 57.6288H131.516ZM133.152 57.4413C133.152 56.9413 133.148 56.6015 133.129 56.3085H133.91L133.945 56.9413H133.973C134.121 56.4413 134.477 56.2304 134.766 56.2304C134.852 56.2304 134.891 56.2304 134.957 56.2499V57.2499C134.887 57.2304 134.816 57.2187 134.715 57.2187C134.375 57.2187 134.148 57.4296 134.086 57.7617C134.074 57.8281 134.066 57.9101 134.066 57.9999V59.7304H133.152" fill="white"/>
</svg>
