<svg width="129" height="129" viewBox="0 0 129 129" fill="none" xmlns="http://www.w3.org/2000/svg">
<path d="M49.911 127.384L64.4939 72.9371L79.0857 127.384C79.397 128.548 80.5974 129.242 81.7622 128.922C82.9271 128.611 83.6207 127.419 83.3006 126.254L68.7176 71.8078L108.572 111.662C109.425 112.516 110.804 112.516 111.657 111.662C112.511 110.809 112.511 109.43 111.657 108.577L71.8032 68.7222L126.249 83.3053C127.414 83.6165 128.614 82.9318 128.926 81.7581C129.237 80.6021 128.543 79.4017 127.378 79.0904L72.9325 64.4985L127.378 49.9154C128.543 49.6042 129.237 48.4037 128.926 47.2389C128.614 46.074 127.414 45.3804 126.249 45.6916L71.8032 60.2747L111.657 20.4202C112.511 19.5755 112.511 18.1883 111.657 17.3347C110.804 16.481 109.425 16.481 108.572 17.3347L68.7176 57.1891L83.3006 2.75157C83.6207 1.57781 82.9271 0.386263 81.7622 0.0750409C80.5974 -0.236184 79.397 0.448509 79.0857 1.61338L64.4939 56.0598L49.911 1.61338C49.5998 0.448509 48.3993 -0.236184 47.2345 0.0750409C46.2564 0.332912 45.6161 1.21323 45.6161 2.18247C45.6161 2.36921 45.6428 2.55594 45.6873 2.75157L60.2791 57.1891L20.425 17.3347C19.5714 16.481 18.1842 16.481 17.3306 17.3347C16.9038 17.7615 16.6992 18.3217 16.6992 18.8819C16.6992 19.4421 16.9038 20.0023 17.3306 20.4202L57.1847 60.2747L2.74764 45.6916C1.58278 45.3804 0.382358 46.074 0.0711363 47.2389C0.0177852 47.4256 0 47.6123 0 47.808C0 48.7683 0.640226 49.6486 1.61835 49.9154L56.0554 64.4985L1.61835 79.0904C0.640226 79.3483 0 80.2286 0 81.1979C0 81.3846 0.0177852 81.5714 0.0711363 81.7581C0.382358 82.9318 1.58278 83.6165 2.74764 83.3053L57.1847 68.7222L17.3306 108.577C16.9038 108.995 16.6992 109.564 16.6992 110.115C16.6992 110.675 16.9038 111.235 17.3306 111.662C18.1842 112.516 19.5714 112.516 20.425 111.662L60.2791 71.8078L45.6873 126.254C45.6428 126.441 45.6161 126.628 45.6161 126.814C45.6161 127.784 46.2564 128.664 47.2345 128.922C48.3993 129.242 49.5998 128.548 49.911 127.384Z" fill="#71C6B0"/>
</svg>
